<mxfile host="app.diagrams.net" modified="2023-05-29T17:10:24.108Z" agent="Mozilla/5.0 (Macintosh; Intel Mac OS X 10_15_7) AppleWebKit/605.1.15 (KHTML, like Gecko) Version/16.4 Safari/605.1.15" etag="5I9Yxz1YIVmgjyCK1Tge" version="21.3.4" type="device">
  <diagram id="C5RBs43oDa-KdzZeNtuy" name="Page-1">
    <mxGraphModel dx="1083" dy="712" grid="1" gridSize="10" guides="1" tooltips="1" connect="1" arrows="1" fold="1" page="1" pageScale="1" pageWidth="1169" pageHeight="827" math="0" shadow="0">
      <root>
        <mxCell id="WIyWlLk6GJQsqaUBKTNV-0" />
        <mxCell id="WIyWlLk6GJQsqaUBKTNV-1" parent="WIyWlLk6GJQsqaUBKTNV-0" />
        <mxCell id="cwmCY-04ukcJqWieNUf5-16" value="" style="rounded=0;whiteSpace=wrap;html=1;" vertex="1" parent="WIyWlLk6GJQsqaUBKTNV-1">
          <mxGeometry x="10" y="10" width="870" height="680" as="geometry" />
        </mxCell>
        <mxCell id="6YvgYPWYmUtqOVwMMp4i-0" value="Config" style="swimlane;fontStyle=1;align=center;verticalAlign=top;childLayout=stackLayout;horizontal=1;startSize=26;horizontalStack=0;resizeParent=1;resizeParentMax=0;resizeLast=0;collapsible=1;marginBottom=0;whiteSpace=wrap;html=1;" parent="WIyWlLk6GJQsqaUBKTNV-1" vertex="1">
          <mxGeometry x="50" y="470" width="180" height="180" as="geometry" />
        </mxCell>
        <mxCell id="6YvgYPWYmUtqOVwMMp4i-1" value="- num_rows: int&lt;br&gt;- num_columns: int&lt;br&gt;- availible_colors: list[str]&lt;br&gt;- max_guesses: int" style="text;strokeColor=none;fillColor=none;align=left;verticalAlign=top;spacingLeft=4;spacingRight=4;overflow=hidden;rotatable=0;points=[[0,0.5],[1,0.5]];portConstraint=eastwest;whiteSpace=wrap;html=1;" parent="6YvgYPWYmUtqOVwMMp4i-0" vertex="1">
          <mxGeometry y="26" width="180" height="74" as="geometry" />
        </mxCell>
        <mxCell id="6YvgYPWYmUtqOVwMMp4i-2" value="" style="line;strokeWidth=1;fillColor=none;align=left;verticalAlign=middle;spacingTop=-1;spacingLeft=3;spacingRight=3;rotatable=0;labelPosition=right;points=[];portConstraint=eastwest;strokeColor=inherit;" parent="6YvgYPWYmUtqOVwMMp4i-0" vertex="1">
          <mxGeometry y="100" width="180" height="8" as="geometry" />
        </mxCell>
        <mxCell id="6YvgYPWYmUtqOVwMMp4i-3" value="+ get_num_rows(): int&amp;nbsp;&lt;br&gt;+ get_num_columns(): int&lt;br&gt;+ get_availible_colors() : list[str]&lt;br&gt;+ get_max_guesses(): int" style="text;strokeColor=none;fillColor=none;align=left;verticalAlign=top;spacingLeft=4;spacingRight=4;overflow=hidden;rotatable=0;points=[[0,0.5],[1,0.5]];portConstraint=eastwest;whiteSpace=wrap;html=1;" parent="6YvgYPWYmUtqOVwMMp4i-0" vertex="1">
          <mxGeometry y="108" width="180" height="72" as="geometry" />
        </mxCell>
        <mxCell id="6YvgYPWYmUtqOVwMMp4i-4" value="GameLogic" style="swimlane;fontStyle=1;align=center;verticalAlign=top;childLayout=stackLayout;horizontal=1;startSize=26;horizontalStack=0;resizeParent=1;resizeParentMax=0;resizeLast=0;collapsible=1;marginBottom=0;whiteSpace=wrap;html=1;" parent="WIyWlLk6GJQsqaUBKTNV-1" vertex="1">
          <mxGeometry x="250" y="470" width="330" height="210" as="geometry" />
        </mxCell>
        <mxCell id="6YvgYPWYmUtqOVwMMp4i-5" value="- secret_code: list[str]&lt;br&gt;- guesses: list[str]&lt;br&gt;- board: list[str][str]&lt;br&gt;- current_player: str&lt;br&gt;- coder_logic: CoderLogic&lt;br&gt;- guesser_logic: GuesserLogic" style="text;strokeColor=none;fillColor=none;align=left;verticalAlign=top;spacingLeft=4;spacingRight=4;overflow=hidden;rotatable=0;points=[[0,0.5],[1,0.5]];portConstraint=eastwest;whiteSpace=wrap;html=1;" parent="6YvgYPWYmUtqOVwMMp4i-4" vertex="1">
          <mxGeometry y="26" width="330" height="94" as="geometry" />
        </mxCell>
        <mxCell id="6YvgYPWYmUtqOVwMMp4i-6" value="" style="line;strokeWidth=1;fillColor=none;align=left;verticalAlign=middle;spacingTop=-1;spacingLeft=3;spacingRight=3;rotatable=0;labelPosition=right;points=[];portConstraint=eastwest;strokeColor=inherit;" parent="6YvgYPWYmUtqOVwMMp4i-4" vertex="1">
          <mxGeometry y="120" width="330" height="8" as="geometry" />
        </mxCell>
        <mxCell id="6YvgYPWYmUtqOVwMMp4i-7" value="+ start_game(): void&lt;br&gt;+ check_game_over(): bool&lt;br&gt;+ get_element_on_board(row: int, col: int): str&lt;br&gt;+ set_element_on_board(row: int, col: int, element: str): void&lt;br&gt;+ make_guess(guess: list[str])" style="text;strokeColor=none;fillColor=none;align=left;verticalAlign=top;spacingLeft=4;spacingRight=4;overflow=hidden;rotatable=0;points=[[0,0.5],[1,0.5]];portConstraint=eastwest;whiteSpace=wrap;html=1;" parent="6YvgYPWYmUtqOVwMMp4i-4" vertex="1">
          <mxGeometry y="128" width="330" height="82" as="geometry" />
        </mxCell>
        <mxCell id="6YvgYPWYmUtqOVwMMp4i-21" value="CoderController" style="swimlane;fontStyle=1;align=center;verticalAlign=top;childLayout=stackLayout;horizontal=1;startSize=26;horizontalStack=0;resizeParent=1;resizeParentMax=0;resizeLast=0;collapsible=1;marginBottom=0;whiteSpace=wrap;html=1;" parent="WIyWlLk6GJQsqaUBKTNV-1" vertex="1">
          <mxGeometry x="680" y="284" width="190" height="84" as="geometry" />
        </mxCell>
        <mxCell id="6YvgYPWYmUtqOVwMMp4i-23" value="" style="line;strokeWidth=1;fillColor=none;align=left;verticalAlign=middle;spacingTop=-1;spacingLeft=3;spacingRight=3;rotatable=0;labelPosition=right;points=[];portConstraint=eastwest;strokeColor=inherit;" parent="6YvgYPWYmUtqOVwMMp4i-21" vertex="1">
          <mxGeometry y="26" width="190" height="8" as="geometry" />
        </mxCell>
        <mxCell id="6YvgYPWYmUtqOVwMMp4i-24" value="+ generate_secret_code(): list[str]&lt;br&gt;+ is_secret_code_valid(): bool" style="text;strokeColor=none;fillColor=none;align=left;verticalAlign=top;spacingLeft=4;spacingRight=4;overflow=hidden;rotatable=0;points=[[0,0.5],[1,0.5]];portConstraint=eastwest;whiteSpace=wrap;html=1;" parent="6YvgYPWYmUtqOVwMMp4i-21" vertex="1">
          <mxGeometry y="34" width="190" height="50" as="geometry" />
        </mxCell>
        <mxCell id="6YvgYPWYmUtqOVwMMp4i-25" value="GuesserController" style="swimlane;fontStyle=1;align=center;verticalAlign=top;childLayout=stackLayout;horizontal=1;startSize=26;horizontalStack=0;resizeParent=1;resizeParentMax=0;resizeLast=0;collapsible=1;marginBottom=0;whiteSpace=wrap;html=1;" parent="WIyWlLk6GJQsqaUBKTNV-1" vertex="1">
          <mxGeometry x="670" y="26" width="200" height="74" as="geometry" />
        </mxCell>
        <mxCell id="6YvgYPWYmUtqOVwMMp4i-27" value="" style="line;strokeWidth=1;fillColor=none;align=left;verticalAlign=middle;spacingTop=-1;spacingLeft=3;spacingRight=3;rotatable=0;labelPosition=right;points=[];portConstraint=eastwest;strokeColor=inherit;" parent="6YvgYPWYmUtqOVwMMp4i-25" vertex="1">
          <mxGeometry y="26" width="200" height="8" as="geometry" />
        </mxCell>
        <mxCell id="6YvgYPWYmUtqOVwMMp4i-28" value="+ make_guess(guess: list[str]): void&lt;br&gt;+ is_guess_valid(): bool" style="text;strokeColor=none;fillColor=none;align=left;verticalAlign=top;spacingLeft=4;spacingRight=4;overflow=hidden;rotatable=0;points=[[0,0.5],[1,0.5]];portConstraint=eastwest;whiteSpace=wrap;html=1;" parent="6YvgYPWYmUtqOVwMMp4i-25" vertex="1">
          <mxGeometry y="34" width="200" height="40" as="geometry" />
        </mxCell>
        <mxCell id="6YvgYPWYmUtqOVwMMp4i-29" value="MainGUI" style="swimlane;fontStyle=1;align=center;verticalAlign=top;childLayout=stackLayout;horizontal=1;startSize=26;horizontalStack=0;resizeParent=1;resizeParentMax=0;resizeLast=0;collapsible=1;marginBottom=0;whiteSpace=wrap;html=1;" parent="WIyWlLk6GJQsqaUBKTNV-1" vertex="1">
          <mxGeometry x="20" y="208" width="260" height="200" as="geometry" />
        </mxCell>
        <mxCell id="6YvgYPWYmUtqOVwMMp4i-30" value="- board_gui: BoardGUI&lt;br&gt;- menu_gui: MenuGUI" style="text;strokeColor=none;fillColor=none;align=left;verticalAlign=top;spacingLeft=4;spacingRight=4;overflow=hidden;rotatable=0;points=[[0,0.5],[1,0.5]];portConstraint=eastwest;whiteSpace=wrap;html=1;" parent="6YvgYPWYmUtqOVwMMp4i-29" vertex="1">
          <mxGeometry y="26" width="260" height="44" as="geometry" />
        </mxCell>
        <mxCell id="6YvgYPWYmUtqOVwMMp4i-31" value="" style="line;strokeWidth=1;fillColor=none;align=left;verticalAlign=middle;spacingTop=-1;spacingLeft=3;spacingRight=3;rotatable=0;labelPosition=right;points=[];portConstraint=eastwest;strokeColor=inherit;" parent="6YvgYPWYmUtqOVwMMp4i-29" vertex="1">
          <mxGeometry y="70" width="260" height="8" as="geometry" />
        </mxCell>
        <mxCell id="6YvgYPWYmUtqOVwMMp4i-32" value="+ display_board(): void&lt;br&gt;+ display_menu(): void&lt;br&gt;+ set_color(row, col, color): void&lt;br&gt;+ get_user_menu_choice(): int&lt;br&gt;+ get_user_secret_code_choice(): list[str]&lt;br&gt;+ set_user_secret_code_choice(): list[str]&lt;br&gt;+ get_user_guess_choice(): list[str]&lt;br&gt;+ set_user_guess_choice(guess: list[str]): void" style="text;strokeColor=none;fillColor=none;align=left;verticalAlign=top;spacingLeft=4;spacingRight=4;overflow=hidden;rotatable=0;points=[[0,0.5],[1,0.5]];portConstraint=eastwest;whiteSpace=wrap;html=1;" parent="6YvgYPWYmUtqOVwMMp4i-29" vertex="1">
          <mxGeometry y="78" width="260" height="122" as="geometry" />
        </mxCell>
        <mxCell id="6YvgYPWYmUtqOVwMMp4i-41" value="Main" style="swimlane;fontStyle=1;align=center;verticalAlign=top;childLayout=stackLayout;horizontal=1;startSize=26;horizontalStack=0;resizeParent=1;resizeParentMax=0;resizeLast=0;collapsible=1;marginBottom=0;whiteSpace=wrap;html=1;" parent="WIyWlLk6GJQsqaUBKTNV-1" vertex="1">
          <mxGeometry x="340" y="284" width="250" height="124" as="geometry" />
        </mxCell>
        <mxCell id="6YvgYPWYmUtqOVwMMp4i-42" value="- main_gui: MainGUI&lt;br&gt;- controller: Controller&lt;br&gt;- game_logic: GameLogic&lt;br&gt;- config: Config" style="text;strokeColor=none;fillColor=none;align=left;verticalAlign=top;spacingLeft=4;spacingRight=4;overflow=hidden;rotatable=0;points=[[0,0.5],[1,0.5]];portConstraint=eastwest;whiteSpace=wrap;html=1;" parent="6YvgYPWYmUtqOVwMMp4i-41" vertex="1">
          <mxGeometry y="26" width="250" height="64" as="geometry" />
        </mxCell>
        <mxCell id="6YvgYPWYmUtqOVwMMp4i-43" value="" style="line;strokeWidth=1;fillColor=none;align=left;verticalAlign=middle;spacingTop=-1;spacingLeft=3;spacingRight=3;rotatable=0;labelPosition=right;points=[];portConstraint=eastwest;strokeColor=inherit;" parent="6YvgYPWYmUtqOVwMMp4i-41" vertex="1">
          <mxGeometry y="90" width="250" height="8" as="geometry" />
        </mxCell>
        <mxCell id="6YvgYPWYmUtqOVwMMp4i-44" value="+ main(): void" style="text;strokeColor=none;fillColor=none;align=left;verticalAlign=top;spacingLeft=4;spacingRight=4;overflow=hidden;rotatable=0;points=[[0,0.5],[1,0.5]];portConstraint=eastwest;whiteSpace=wrap;html=1;" parent="6YvgYPWYmUtqOVwMMp4i-41" vertex="1">
          <mxGeometry y="98" width="250" height="26" as="geometry" />
        </mxCell>
        <mxCell id="6YvgYPWYmUtqOVwMMp4i-59" value="1" style="endArrow=none;html=1;endSize=12;startArrow=diamondThin;startSize=14;startFill=1;edgeStyle=orthogonalEdgeStyle;align=left;verticalAlign=bottom;rounded=0;endFill=0;" parent="WIyWlLk6GJQsqaUBKTNV-1" target="6YvgYPWYmUtqOVwMMp4i-70" edge="1">
          <mxGeometry x="0.7927" relative="1" as="geometry">
            <mxPoint x="175" y="208" as="sourcePoint" />
            <mxPoint x="570" y="220" as="targetPoint" />
            <Array as="points">
              <mxPoint x="175" y="180" />
              <mxPoint x="260" y="180" />
            </Array>
            <mxPoint as="offset" />
          </mxGeometry>
        </mxCell>
        <mxCell id="6YvgYPWYmUtqOVwMMp4i-62" value="1" style="endArrow=none;html=1;endSize=12;startArrow=diamondThin;startSize=14;startFill=1;edgeStyle=orthogonalEdgeStyle;align=left;verticalAlign=bottom;rounded=0;endFill=0;" parent="WIyWlLk6GJQsqaUBKTNV-1" source="6YvgYPWYmUtqOVwMMp4i-41" edge="1">
          <mxGeometry x="0.6426" relative="1" as="geometry">
            <mxPoint x="410" y="220" as="sourcePoint" />
            <mxPoint x="280" y="310" as="targetPoint" />
            <Array as="points">
              <mxPoint x="281" y="310" />
            </Array>
            <mxPoint as="offset" />
          </mxGeometry>
        </mxCell>
        <mxCell id="6YvgYPWYmUtqOVwMMp4i-64" value="1" style="endArrow=none;html=1;endSize=12;startArrow=diamondThin;startSize=14;startFill=1;edgeStyle=orthogonalEdgeStyle;align=left;verticalAlign=bottom;rounded=0;endFill=0;" parent="WIyWlLk6GJQsqaUBKTNV-1" target="6YvgYPWYmUtqOVwMMp4i-74" edge="1">
          <mxGeometry x="0.9106" relative="1" as="geometry">
            <mxPoint x="175" y="208" as="sourcePoint" />
            <mxPoint x="490" y="220" as="targetPoint" />
            <Array as="points">
              <mxPoint x="175" y="180" />
              <mxPoint x="530" y="180" />
            </Array>
            <mxPoint as="offset" />
          </mxGeometry>
        </mxCell>
        <mxCell id="6YvgYPWYmUtqOVwMMp4i-66" value="1" style="endArrow=none;html=1;endSize=12;startArrow=diamondThin;startSize=14;startFill=1;edgeStyle=orthogonalEdgeStyle;align=left;verticalAlign=bottom;rounded=0;endFill=0;" parent="WIyWlLk6GJQsqaUBKTNV-1" source="cwmCY-04ukcJqWieNUf5-0" target="6YvgYPWYmUtqOVwMMp4i-25" edge="1">
          <mxGeometry x="0.6667" relative="1" as="geometry">
            <mxPoint x="330" y="260" as="sourcePoint" />
            <mxPoint x="490" y="260" as="targetPoint" />
            <Array as="points">
              <mxPoint x="830" y="170" />
            </Array>
            <mxPoint as="offset" />
          </mxGeometry>
        </mxCell>
        <mxCell id="6YvgYPWYmUtqOVwMMp4i-67" value="1" style="endArrow=none;html=1;endSize=12;startArrow=diamondThin;startSize=14;startFill=1;edgeStyle=orthogonalEdgeStyle;align=left;verticalAlign=bottom;rounded=0;endFill=0;" parent="WIyWlLk6GJQsqaUBKTNV-1" source="cwmCY-04ukcJqWieNUf5-0" target="6YvgYPWYmUtqOVwMMp4i-21" edge="1">
          <mxGeometry x="1" relative="1" as="geometry">
            <mxPoint x="330" y="260" as="sourcePoint" />
            <mxPoint x="490" y="260" as="targetPoint" />
            <Array as="points">
              <mxPoint x="830" y="170" />
            </Array>
            <mxPoint as="offset" />
          </mxGeometry>
        </mxCell>
        <mxCell id="6YvgYPWYmUtqOVwMMp4i-68" value="1" style="endArrow=none;html=1;endSize=12;startArrow=diamondThin;startSize=14;startFill=1;edgeStyle=orthogonalEdgeStyle;align=left;verticalAlign=bottom;rounded=0;entryX=0.865;entryY=0;entryDx=0;entryDy=0;entryPerimeter=0;endFill=0;" parent="WIyWlLk6GJQsqaUBKTNV-1" source="6YvgYPWYmUtqOVwMMp4i-41" target="6YvgYPWYmUtqOVwMMp4i-0" edge="1">
          <mxGeometry x="0.7643" relative="1" as="geometry">
            <mxPoint x="260" y="460" as="sourcePoint" />
            <mxPoint x="420" y="460" as="targetPoint" />
            <mxPoint as="offset" />
            <Array as="points">
              <mxPoint x="485" y="430" />
              <mxPoint x="150" y="430" />
              <mxPoint x="150" y="470" />
            </Array>
          </mxGeometry>
        </mxCell>
        <mxCell id="6YvgYPWYmUtqOVwMMp4i-69" value="1" style="endArrow=none;html=1;endSize=12;startArrow=diamondThin;startSize=14;startFill=1;edgeStyle=orthogonalEdgeStyle;align=left;verticalAlign=bottom;rounded=0;entryX=0.521;entryY=0;entryDx=0;entryDy=0;entryPerimeter=0;endFill=0;" parent="WIyWlLk6GJQsqaUBKTNV-1" source="6YvgYPWYmUtqOVwMMp4i-41" target="6YvgYPWYmUtqOVwMMp4i-4" edge="1">
          <mxGeometry x="1" relative="1" as="geometry">
            <mxPoint x="260" y="460" as="sourcePoint" />
            <mxPoint x="420" y="460" as="targetPoint" />
            <mxPoint y="1" as="offset" />
            <Array as="points">
              <mxPoint x="485" y="430" />
              <mxPoint x="420" y="430" />
              <mxPoint x="420" y="470" />
            </Array>
          </mxGeometry>
        </mxCell>
        <mxCell id="6YvgYPWYmUtqOVwMMp4i-70" value="BoardGUI" style="swimlane;fontStyle=1;align=center;verticalAlign=top;childLayout=stackLayout;horizontal=1;startSize=26;horizontalStack=0;resizeParent=1;resizeParentMax=0;resizeLast=0;collapsible=1;marginBottom=0;whiteSpace=wrap;html=1;" parent="WIyWlLk6GJQsqaUBKTNV-1" vertex="1">
          <mxGeometry x="50" y="20" width="420" height="130" as="geometry" />
        </mxCell>
        <mxCell id="6YvgYPWYmUtqOVwMMp4i-71" value="+ showSecretCode: bool" style="text;strokeColor=none;fillColor=none;align=left;verticalAlign=top;spacingLeft=4;spacingRight=4;overflow=hidden;rotatable=0;points=[[0,0.5],[1,0.5]];portConstraint=eastwest;whiteSpace=wrap;html=1;" parent="6YvgYPWYmUtqOVwMMp4i-70" vertex="1">
          <mxGeometry y="26" width="420" height="26" as="geometry" />
        </mxCell>
        <mxCell id="6YvgYPWYmUtqOVwMMp4i-72" value="" style="line;strokeWidth=1;fillColor=none;align=left;verticalAlign=middle;spacingTop=-1;spacingLeft=3;spacingRight=3;rotatable=0;labelPosition=right;points=[];portConstraint=eastwest;strokeColor=inherit;" parent="6YvgYPWYmUtqOVwMMp4i-70" vertex="1">
          <mxGeometry y="52" width="420" height="8" as="geometry" />
        </mxCell>
        <mxCell id="6YvgYPWYmUtqOVwMMp4i-73" value="+ clear() : void&lt;br&gt;+ draw_secret_code(list[str]): void&lt;br&gt;+ draw_guess_color(row: int, col: int, color: str): void&lt;br&gt;+ draw_black_and_white_pins(num_black_pins, num_white_pins): void" style="text;strokeColor=none;fillColor=none;align=left;verticalAlign=top;spacingLeft=4;spacingRight=4;overflow=hidden;rotatable=0;points=[[0,0.5],[1,0.5]];portConstraint=eastwest;whiteSpace=wrap;html=1;" parent="6YvgYPWYmUtqOVwMMp4i-70" vertex="1">
          <mxGeometry y="60" width="420" height="70" as="geometry" />
        </mxCell>
        <mxCell id="6YvgYPWYmUtqOVwMMp4i-74" value="MenuGUI" style="swimlane;fontStyle=1;align=center;verticalAlign=top;childLayout=stackLayout;horizontal=1;startSize=26;horizontalStack=0;resizeParent=1;resizeParentMax=0;resizeLast=0;collapsible=1;marginBottom=0;whiteSpace=wrap;html=1;" parent="WIyWlLk6GJQsqaUBKTNV-1" vertex="1">
          <mxGeometry x="490" y="46" width="160" height="34" as="geometry" />
        </mxCell>
        <mxCell id="6YvgYPWYmUtqOVwMMp4i-76" value="" style="line;strokeWidth=1;fillColor=none;align=left;verticalAlign=middle;spacingTop=-1;spacingLeft=3;spacingRight=3;rotatable=0;labelPosition=right;points=[];portConstraint=eastwest;strokeColor=inherit;" parent="6YvgYPWYmUtqOVwMMp4i-74" vertex="1">
          <mxGeometry y="26" width="160" height="8" as="geometry" />
        </mxCell>
        <mxCell id="cwmCY-04ukcJqWieNUf5-0" value="Controller" style="swimlane;fontStyle=1;align=center;verticalAlign=top;childLayout=stackLayout;horizontal=1;startSize=26;horizontalStack=0;resizeParent=1;resizeParentMax=0;resizeLast=0;collapsible=1;marginBottom=0;whiteSpace=wrap;html=1;" vertex="1" parent="WIyWlLk6GJQsqaUBKTNV-1">
          <mxGeometry x="540" y="140" width="220" height="114" as="geometry" />
        </mxCell>
        <mxCell id="cwmCY-04ukcJqWieNUf5-1" value="-&amp;nbsp;player_controlled: bool&lt;br&gt;- coder_controller: CoderController&lt;br style=&quot;border-color: var(--border-color);&quot;&gt;- game_logic: GameLogic" style="text;strokeColor=none;fillColor=none;align=left;verticalAlign=top;spacingLeft=4;spacingRight=4;overflow=hidden;rotatable=0;points=[[0,0.5],[1,0.5]];portConstraint=eastwest;whiteSpace=wrap;html=1;" vertex="1" parent="cwmCY-04ukcJqWieNUf5-0">
          <mxGeometry y="26" width="220" height="54" as="geometry" />
        </mxCell>
        <mxCell id="cwmCY-04ukcJqWieNUf5-2" value="" style="line;strokeWidth=1;fillColor=none;align=left;verticalAlign=middle;spacingTop=-1;spacingLeft=3;spacingRight=3;rotatable=0;labelPosition=right;points=[];portConstraint=eastwest;strokeColor=inherit;" vertex="1" parent="cwmCY-04ukcJqWieNUf5-0">
          <mxGeometry y="80" width="220" height="8" as="geometry" />
        </mxCell>
        <mxCell id="cwmCY-04ukcJqWieNUf5-3" value="+ process_input(): void" style="text;strokeColor=none;fillColor=none;align=left;verticalAlign=top;spacingLeft=4;spacingRight=4;overflow=hidden;rotatable=0;points=[[0,0.5],[1,0.5]];portConstraint=eastwest;whiteSpace=wrap;html=1;" vertex="1" parent="cwmCY-04ukcJqWieNUf5-0">
          <mxGeometry y="88" width="220" height="26" as="geometry" />
        </mxCell>
        <mxCell id="cwmCY-04ukcJqWieNUf5-4" value="1" style="endArrow=none;html=1;endSize=12;startArrow=diamondThin;startSize=14;startFill=1;edgeStyle=orthogonalEdgeStyle;align=left;verticalAlign=bottom;rounded=0;endFill=0;" edge="1" parent="WIyWlLk6GJQsqaUBKTNV-1" source="6YvgYPWYmUtqOVwMMp4i-41" target="cwmCY-04ukcJqWieNUf5-0">
          <mxGeometry x="0.6883" relative="1" as="geometry">
            <mxPoint x="410" y="420" as="sourcePoint" />
            <mxPoint x="570" y="420" as="targetPoint" />
            <Array as="points">
              <mxPoint x="670" y="310" />
            </Array>
            <mxPoint as="offset" />
          </mxGeometry>
        </mxCell>
        <mxCell id="cwmCY-04ukcJqWieNUf5-5" value="CoderLogic" style="swimlane;fontStyle=1;align=center;verticalAlign=top;childLayout=stackLayout;horizontal=1;startSize=26;horizontalStack=0;resizeParent=1;resizeParentMax=0;resizeLast=0;collapsible=1;marginBottom=0;whiteSpace=wrap;html=1;" vertex="1" parent="WIyWlLk6GJQsqaUBKTNV-1">
          <mxGeometry x="660" y="410" width="210" height="110" as="geometry" />
        </mxCell>
        <mxCell id="cwmCY-04ukcJqWieNUf5-6" value="-&amp;nbsp;player_controlled: bool" style="text;strokeColor=none;fillColor=none;align=left;verticalAlign=top;spacingLeft=4;spacingRight=4;overflow=hidden;rotatable=0;points=[[0,0.5],[1,0.5]];portConstraint=eastwest;whiteSpace=wrap;html=1;" vertex="1" parent="cwmCY-04ukcJqWieNUf5-5">
          <mxGeometry y="26" width="210" height="26" as="geometry" />
        </mxCell>
        <mxCell id="cwmCY-04ukcJqWieNUf5-7" value="" style="line;strokeWidth=1;fillColor=none;align=left;verticalAlign=middle;spacingTop=-1;spacingLeft=3;spacingRight=3;rotatable=0;labelPosition=right;points=[];portConstraint=eastwest;strokeColor=inherit;" vertex="1" parent="cwmCY-04ukcJqWieNUf5-5">
          <mxGeometry y="52" width="210" height="8" as="geometry" />
        </mxCell>
        <mxCell id="cwmCY-04ukcJqWieNUf5-8" value="+ make_guess(guess list[str]): void&lt;br&gt;+ rate_guess(): list[str]" style="text;strokeColor=none;fillColor=none;align=left;verticalAlign=top;spacingLeft=4;spacingRight=4;overflow=hidden;rotatable=0;points=[[0,0.5],[1,0.5]];portConstraint=eastwest;whiteSpace=wrap;html=1;" vertex="1" parent="cwmCY-04ukcJqWieNUf5-5">
          <mxGeometry y="60" width="210" height="50" as="geometry" />
        </mxCell>
        <mxCell id="cwmCY-04ukcJqWieNUf5-9" value="GuesserLogic" style="swimlane;fontStyle=1;align=center;verticalAlign=top;childLayout=stackLayout;horizontal=1;startSize=26;horizontalStack=0;resizeParent=1;resizeParentMax=0;resizeLast=0;collapsible=1;marginBottom=0;whiteSpace=wrap;html=1;" vertex="1" parent="WIyWlLk6GJQsqaUBKTNV-1">
          <mxGeometry x="660" y="550" width="210" height="110" as="geometry" />
        </mxCell>
        <mxCell id="cwmCY-04ukcJqWieNUf5-10" value="-&amp;nbsp;player_controlled: bool" style="text;strokeColor=none;fillColor=none;align=left;verticalAlign=top;spacingLeft=4;spacingRight=4;overflow=hidden;rotatable=0;points=[[0,0.5],[1,0.5]];portConstraint=eastwest;whiteSpace=wrap;html=1;" vertex="1" parent="cwmCY-04ukcJqWieNUf5-9">
          <mxGeometry y="26" width="210" height="26" as="geometry" />
        </mxCell>
        <mxCell id="cwmCY-04ukcJqWieNUf5-11" value="" style="line;strokeWidth=1;fillColor=none;align=left;verticalAlign=middle;spacingTop=-1;spacingLeft=3;spacingRight=3;rotatable=0;labelPosition=right;points=[];portConstraint=eastwest;strokeColor=inherit;" vertex="1" parent="cwmCY-04ukcJqWieNUf5-9">
          <mxGeometry y="52" width="210" height="8" as="geometry" />
        </mxCell>
        <mxCell id="cwmCY-04ukcJqWieNUf5-12" value="+ run_knuths_algorithm(): list[str]&lt;br&gt;+ make_guess(guess list[str]): void" style="text;strokeColor=none;fillColor=none;align=left;verticalAlign=top;spacingLeft=4;spacingRight=4;overflow=hidden;rotatable=0;points=[[0,0.5],[1,0.5]];portConstraint=eastwest;whiteSpace=wrap;html=1;" vertex="1" parent="cwmCY-04ukcJqWieNUf5-9">
          <mxGeometry y="60" width="210" height="50" as="geometry" />
        </mxCell>
        <mxCell id="cwmCY-04ukcJqWieNUf5-13" value="1" style="endArrow=none;html=1;endSize=12;startArrow=diamondThin;startSize=14;startFill=1;edgeStyle=orthogonalEdgeStyle;align=left;verticalAlign=bottom;rounded=0;endFill=0;" edge="1" parent="WIyWlLk6GJQsqaUBKTNV-1" source="6YvgYPWYmUtqOVwMMp4i-4" target="cwmCY-04ukcJqWieNUf5-5">
          <mxGeometry x="0.8157" y="3" relative="1" as="geometry">
            <mxPoint x="480" y="440" as="sourcePoint" />
            <mxPoint x="640" y="440" as="targetPoint" />
            <Array as="points">
              <mxPoint x="620" y="585" />
              <mxPoint x="620" y="480" />
            </Array>
            <mxPoint as="offset" />
          </mxGeometry>
        </mxCell>
        <mxCell id="cwmCY-04ukcJqWieNUf5-14" value="1" style="endArrow=none;html=1;endSize=12;startArrow=diamondThin;startSize=14;startFill=1;edgeStyle=orthogonalEdgeStyle;align=left;verticalAlign=bottom;rounded=0;endFill=0;" edge="1" parent="WIyWlLk6GJQsqaUBKTNV-1" source="6YvgYPWYmUtqOVwMMp4i-4" target="cwmCY-04ukcJqWieNUf5-9">
          <mxGeometry x="0.6262" y="3" relative="1" as="geometry">
            <mxPoint x="480" y="440" as="sourcePoint" />
            <mxPoint x="640" y="440" as="targetPoint" />
            <Array as="points">
              <mxPoint x="620" y="585" />
              <mxPoint x="620" y="620" />
            </Array>
            <mxPoint as="offset" />
          </mxGeometry>
        </mxCell>
      </root>
    </mxGraphModel>
  </diagram>
</mxfile>
